<svg xmlns="http://www.w3.org/2000/svg" width="61" height="39" viewBox="0 0 61 39">
  <g id="app_logo" transform="translate(-146 -44)">
    <text id="DO_IT" data-name="DO IT" transform="translate(146 66)" font-size="24" font-family="Stencil"><tspan x="0" y="0">DO IT</tspan></text>
    <circle id="Ellipse_1" data-name="Ellipse 1" cx="5.5" cy="5.5" r="5.5" transform="translate(152 72)" fill="#fff"/>
    <path id="Ellipse_1_-_Outline" data-name="Ellipse 1 - Outline" d="M5.5,1A4.5,4.5,0,1,0,10,5.5,4.505,4.505,0,0,0,5.5,1m0-1A5.5,5.5,0,1,1,0,5.5,5.5,5.5,0,0,1,5.5,0Z" transform="translate(152 72)"/>
    <circle id="Ellipse_2" data-name="Ellipse 2" cx="5.5" cy="5.5" r="5.5" transform="translate(168 72)" fill="#fff"/>
    <path id="Ellipse_2_-_Outline" data-name="Ellipse 2 - Outline" d="M5.5,1A4.5,4.5,0,1,0,10,5.5,4.505,4.505,0,0,0,5.5,1m0-1A5.5,5.5,0,1,1,0,5.5,5.5,5.5,0,0,1,5.5,0Z" transform="translate(168 72)"/>
    <circle id="Ellipse_3" data-name="Ellipse 3" cx="5.5" cy="5.5" r="5.5" transform="translate(184 72)"/>
    <path id="Ellipse_3_-_Outline" data-name="Ellipse 3 - Outline" d="M5.5,1A4.5,4.5,0,1,0,10,5.5,4.505,4.505,0,0,0,5.5,1m0-1A5.5,5.5,0,1,1,0,5.5,5.5,5.5,0,0,1,5.5,0Z" transform="translate(184 72)"/>
  </g>
</svg>
